<svg width="155" height="55" viewBox="0 0 155 55" fill="none" xmlns="http://www.w3.org/2000/svg">
<path d="M8.36242 21.28C12.4784 21.28 15.3624 19.124 15.3624 15.428V15.372C15.3624 12.096 13.2064 10.696 9.09042 9.632C5.31042 8.736 4.41442 8.064 4.41442 6.552V6.496C4.41442 5.18 5.59042 4.172 7.60642 4.172C9.39842 4.172 11.1344 4.872 12.9264 6.188L14.7744 3.584C12.7584 1.988 10.5464 1.12 7.66242 1.12C3.77042 1.12 0.970424 3.444 0.970424 6.804V6.86C0.970424 10.444 3.32242 11.732 7.49442 12.712C11.1344 13.524 11.9184 14.336 11.9184 15.708V15.764C11.9184 17.22 10.5744 18.228 8.44642 18.228C6.01042 18.228 4.16242 17.332 2.25842 15.68L0.186424 18.144C2.53842 20.272 5.33842 21.28 8.36242 21.28ZM25.7966 21.336C28.5126 21.336 30.4166 20.244 31.8446 18.564L29.8566 16.8C28.6526 17.948 27.5326 18.564 25.8526 18.564C23.6406 18.564 21.9606 17.248 21.5966 14.812H32.4606C32.4886 14.476 32.5166 14.168 32.5166 13.86C32.5166 9.604 30.1366 5.908 25.4326 5.908C21.2046 5.908 18.2086 9.352 18.2086 13.608V13.664C18.2086 18.228 21.5406 21.336 25.7966 21.336ZM21.5686 12.572C21.8766 10.248 23.3046 8.68 25.4046 8.68C27.6446 8.68 28.9326 10.416 29.1566 12.572H21.5686ZM35.891 21H39.307V12.656C39.307 10.332 40.651 8.988 42.639 8.988C44.655 8.988 45.803 10.276 45.803 12.6V21H49.191V11.564C49.191 8.12 47.287 5.908 43.927 5.908C41.603 5.908 40.287 7.112 39.307 8.484V6.216H35.891V21ZM59.3863 21.308C61.7663 21.308 63.3343 20.076 64.4263 18.536V21H67.8143V0.559999H64.4263V8.512C63.3903 7.112 61.7943 5.908 59.3863 5.908C55.8583 5.908 52.5263 8.652 52.5263 13.58V13.636C52.5263 18.564 55.9143 21.308 59.3863 21.308ZM60.1983 18.368C57.8743 18.368 55.9423 16.492 55.9423 13.636V13.58C55.9423 10.668 57.8743 8.848 60.1983 8.848C62.4663 8.848 64.4823 10.724 64.4823 13.58V13.636C64.4823 16.464 62.4663 18.368 60.1983 18.368ZM72.4595 21H75.9035V14.7H79.7955C84.1355 14.7 87.6355 12.376 87.6355 8.008V7.952C87.6355 4.004 84.7795 1.4 80.1875 1.4H72.4595V21ZM75.9035 11.592V4.536H79.9075C82.4835 4.536 84.1355 5.712 84.1355 8.036V8.092C84.1355 10.136 82.5115 11.592 79.9075 11.592H75.9035ZM94.7531 21.308C97.0211 21.308 98.5611 20.356 99.5691 19.152V21H102.873V12.236C102.873 10.304 102.369 8.764 101.277 7.672C100.213 6.58 98.5891 6.02 96.3771 6.02C94.0251 6.02 92.4291 6.524 90.7771 7.224L91.7011 9.884C93.0451 9.324 94.2491 8.96 95.9291 8.96C98.3091 8.96 99.5971 10.052 99.5971 12.18V12.544C98.4491 12.18 97.3011 11.928 95.6211 11.928C92.0091 11.928 89.4891 13.468 89.4891 16.688V16.744C89.4891 19.74 91.9811 21.308 94.7531 21.308ZM95.7051 18.844C94.0531 18.844 92.8211 18.032 92.8211 16.604V16.548C92.8211 14.98 94.0811 14.084 96.2931 14.084C97.6371 14.084 98.7851 14.336 99.6531 14.672V15.68C99.6531 17.584 97.9451 18.844 95.7051 18.844ZM106.903 21H110.319V15.372C110.319 11.452 112.363 9.52 115.359 9.52H115.555V5.936C112.951 5.824 111.243 7.308 110.319 9.548V6.216H106.903V21ZM124.837 21.336C127.721 21.336 129.429 20.216 130.885 18.564L128.841 16.548C127.749 17.64 126.601 18.368 125.005 18.368C122.401 18.368 120.581 16.268 120.581 13.636V13.58C120.581 11.004 122.401 8.876 124.865 8.876C126.545 8.876 127.637 9.632 128.673 10.724L130.801 8.456C129.373 6.944 127.665 5.908 124.893 5.908C120.441 5.908 117.193 9.436 117.193 13.636V13.692C117.193 17.892 120.441 21.336 124.837 21.336ZM140.367 21.336C143.083 21.336 144.987 20.244 146.415 18.564L144.427 16.8C143.223 17.948 142.103 18.564 140.423 18.564C138.211 18.564 136.531 17.248 136.167 14.812H147.031C147.059 14.476 147.087 14.168 147.087 13.86C147.087 9.604 144.707 5.908 140.003 5.908C135.775 5.908 132.779 9.352 132.779 13.608V13.664C132.779 18.228 136.111 21.336 140.367 21.336ZM136.139 12.572C136.447 10.248 137.875 8.68 139.975 8.68C142.215 8.68 143.503 10.416 143.727 12.572H136.139ZM150.657 21H154.073V0.559999H150.657V21Z" fill="#034D91"/>
<path d="M0.718422 54H6.15042V48.4H8.86642C13.7104 48.4 17.2664 45.964 17.2664 41.316V41.26C17.2664 36.92 14.0744 34.4 9.14642 34.4H0.718422V54ZM6.15042 44.144V38.964H8.72642C10.6584 38.964 11.8624 39.832 11.8624 41.512V41.568C11.8624 43.136 10.6584 44.144 8.75442 44.144H6.15042ZM19.5583 54H24.9903V48.064H27.3983L31.3463 54H37.5903L32.9143 47.168C35.3783 46.132 36.9463 44.144 36.9463 41.12V41.064C36.9463 39.188 36.3583 37.648 35.2103 36.5C33.8943 35.184 31.8503 34.4 28.8263 34.4H19.5583V54ZM24.9903 43.808V39.076H28.5743C30.3663 39.076 31.5143 39.86 31.5143 41.428V41.484C31.5143 42.912 30.4223 43.808 28.6023 43.808H24.9903ZM49.5673 54.392C55.6153 54.392 60.1513 49.828 60.1513 44.2V44.144C60.1513 38.544 55.6713 34.008 49.6233 34.008C43.5753 34.008 39.0393 38.572 39.0393 44.2V44.256C39.0393 49.856 43.5193 54.392 49.5673 54.392ZM49.6233 49.492C46.6273 49.492 44.5833 47 44.5833 44.2V44.144C44.5833 41.316 46.5713 38.908 49.5673 38.908C52.5633 38.908 54.5793 41.344 54.5793 44.2V44.256C54.5793 47.084 52.5913 49.492 49.6233 49.492Z" fill="#F86262"/>
</svg>
