<svg width="25" height="25" viewBox="0 0 25 25" fill="none" xmlns="http://www.w3.org/2000/svg">
<circle cx="12.5" cy="12.5" r="12.5" fill="#28C76F"/>
<path fill-rule="evenodd" clip-rule="evenodd" d="M8.878 8.12846C8.878 6.28524 10.4125 4.79102 12.3054 4.79102C14.1983 4.79102 15.7328 6.28524 15.7328 8.12846C15.7328 9.97168 14.1983 11.4659 12.3054 11.4659C10.4125 11.4659 8.878 9.97168 8.878 8.12846ZM12.3054 5.96894C11.0806 5.96894 10.0877 6.93579 10.0877 8.12846C10.0877 9.32113 11.0806 10.288 12.3054 10.288C13.5302 10.288 14.5232 9.32113 14.5232 8.12846C14.5232 6.93579 13.5302 5.96894 12.3054 5.96894Z" fill="white"/>
<path fill-rule="evenodd" clip-rule="evenodd" d="M9.07961 13.8217C8.07748 13.8217 7.2651 14.6128 7.2651 15.5886V16.5218C7.2651 16.536 7.27567 16.5481 7.29007 16.5504C10.6116 17.0784 13.9992 17.0784 17.3208 16.5504C17.3352 16.5481 17.3457 16.536 17.3457 16.5218V15.5886C17.3457 14.6128 16.5334 13.8217 15.5312 13.8217H15.2563C15.2351 13.8217 15.214 13.825 15.1938 13.8314L14.4958 14.0534C13.0725 14.5059 11.5383 14.5059 10.1151 14.0534L9.41709 13.8314C9.39688 13.825 9.37576 13.8217 9.35451 13.8217H9.07961ZM6.05542 15.5886C6.05542 13.9623 7.4094 12.6438 9.07961 12.6438H9.35451C9.50329 12.6438 9.65114 12.6667 9.79258 12.7117L10.4906 12.9336C11.6698 13.3086 12.941 13.3086 14.1203 12.9336L14.8183 12.7117C14.9597 12.6667 15.1075 12.6438 15.2563 12.6438H15.5312C17.2014 12.6438 18.5554 13.9623 18.5554 15.5886V16.5218C18.5554 17.1133 18.1152 17.6176 17.5157 17.7129C14.065 18.2615 10.5458 18.2615 7.09516 17.7129C6.49565 17.6176 6.05542 17.1133 6.05542 16.5218V15.5886Z" fill="white"/>
</svg>