<svg width="123" height="123" viewBox="0 0 123 123" fill="none" xmlns="http://www.w3.org/2000/svg">
    <rect x="0.897461" y="0.5" width="122" height="122" rx="61" fill="#E5F8EE"/>
    <svg x="40" y="40" width="60" height="47" viewBox="0 0 60 47" fill="none" xmlns="http://www.w3.org/2000/svg">
        <path fill-rule="evenodd" clip-rule="evenodd" d="M9.85484 14.0169C9.85484 8.07374 14.8026 3.25586 20.906 3.25586C27.0093 3.25586 31.9571 8.07374 31.9571 14.0169C31.9571 19.96 27.0093 24.7779 20.906 24.7779C14.8026 24.7779 9.85484 19.96 9.85484 14.0169ZM20.906 7.05387C16.9567 7.05387 13.7552 10.1713 13.7552 14.0169C13.7552 17.8625 16.9567 20.9799 20.906 20.9799C24.8552 20.9799 28.0567 17.8625 28.0567 14.0169C28.0567 10.1713 24.8552 7.05387 20.906 7.05387Z" fill="#28C76F"/>
        <path fill-rule="evenodd" clip-rule="evenodd" d="M10.5049 32.3739C7.27371 32.3739 4.65431 34.9246 4.65431 38.0709V41.0797C4.65431 41.1255 4.6884 41.1646 4.73484 41.1719C15.4447 42.8746 26.3672 42.8746 37.0771 41.1719C37.1235 41.1646 37.1576 41.1255 37.1576 41.0797V38.0709C37.1576 34.9246 34.5382 32.3739 31.307 32.3739H30.4207C30.3522 32.3739 30.2841 32.3845 30.2189 32.4052L27.9683 33.1208C23.3793 34.5799 18.4326 34.5799 13.8436 33.1208L11.593 32.4052C11.5279 32.3845 11.4598 32.3739 11.3913 32.3739H10.5049ZM0.753906 38.0709C0.753906 32.827 5.11958 28.5759 10.5049 28.5759H11.3913C11.871 28.5759 12.3477 28.6498 12.8037 28.7948L15.0543 29.5104C18.8566 30.7194 22.9553 30.7194 26.7576 29.5104L29.0082 28.7948C29.4642 28.6498 29.941 28.5759 30.4207 28.5759H31.307C36.6924 28.5759 41.058 32.827 41.058 38.0709V41.0797C41.058 42.9869 39.6386 44.613 37.7056 44.9203C26.5795 46.6891 15.2324 46.6891 4.10636 44.9203C2.17335 44.613 0.753906 42.9869 0.753906 41.0797V38.0709Z" fill="#28C76F"/>
        <path d="M56.5037 8.45195L45.5037 19.452C45.3037 19.652 45.1037 19.752 44.8037 19.752C44.5037 19.752 44.3037 19.652 44.1037 19.452L39.1037 14.452C38.7037 14.052 38.7037 13.452 39.1037 13.052C39.5037 12.652 40.1037 12.652 40.5037 13.052L44.8037 17.352L55.1037 7.05195C55.5037 6.65195 56.1037 6.65195 56.5037 7.05195C56.9037 7.45195 56.9037 8.05195 56.5037 8.45195Z" fill="#28C76F" stroke="#28C76F"/>
        <mask id="mask0_11378_26529" style="mask-type:luminance" maskUnits="userSpaceOnUse" x="38" y="6" width="19" height="14">
            <path d="M56.5037 8.45195L45.5037 19.452C45.3037 19.652 45.1037 19.752 44.8037 19.752C44.5037 19.752 44.3037 19.652 44.1037 19.452L39.1037 14.452C38.7037 14.052 38.7037 13.452 39.1037 13.052C39.5037 12.652 40.1037 12.652 40.5037 13.052L44.8037 17.352L55.1037 7.05195C55.5037 6.65195 56.1037 6.65195 56.5037 7.05195C56.9037 7.45195 56.9037 8.05195 56.5037 8.45195Z" fill="white"/>
        </mask>
        <g mask="url(#mask0_11378_26529)">
            <rect x="35.8037" y="0.751953" width="24" height="24" fill="#28C76F"/>
        </g>
    </svg>
</svg>
