<svg width="122" height="122" viewBox="0 0 122 122" fill="none" xmlns="http://www.w3.org/2000/svg">
<rect width="122" height="122" rx="61" fill="#FDEAEB"/>
<path d="M61.5 79C60.5333 79 59.7083 78.6583 59.025 77.975C58.3417 77.2917 58 76.4667 58 75.5C58 74.5333 58.3417 73.7083 59.025 73.025C59.7083 72.3417 60.5333 72 61.5 72C62.4667 72 63.2917 72.3417 63.975 73.025C64.6583 73.7083 65 74.5333 65 75.5C65 76.4667 64.6583 77.2917 63.975 77.975C63.2917 78.6583 62.4667 79 61.5 79ZM61.5 67C60.5333 67 59.7083 66.6583 59.025 65.975C58.3417 65.2917 58 64.4667 58 63.5V46.5C58 45.5333 58.3417 44.7083 59.025 44.025C59.7083 43.3417 60.5333 43 61.5 43C62.4667 43 63.2917 43.3417 63.975 44.025C64.6583 44.7083 65 45.5333 65 46.5V63.5C65 64.4667 64.6583 65.2917 63.975 65.975C63.2917 66.6583 62.4667 67 61.5 67Z" fill="#EA5455"/>
</svg>
