<svg width="122" height="122" viewBox="0 0 122 122" fill="none" xmlns="http://www.w3.org/2000/svg">
<rect width="122" height="122" rx="61" fill="#E9F4FF"/>
<path d="M40.1825 78.2188C43.49 75.9088 46.7713 74.1369 50.0263 72.9031C53.2813 71.6694 56.7725 71.0525 60.5 71.0525C64.2275 71.0525 67.7319 71.6694 71.0131 72.9031C74.2944 74.1369 77.5888 75.9088 80.8963 78.2188C83.2063 75.3838 84.8469 72.5225 85.8181 69.635C86.7894 66.7475 87.275 63.7025 87.275 60.5C87.275 52.8875 84.7156 46.5219 79.5969 41.4031C74.4781 36.2844 68.1125 33.725 60.5 33.725C52.8875 33.725 46.5219 36.2844 41.4031 41.4031C36.2844 46.5219 33.725 52.8875 33.725 60.5C33.725 63.7025 34.2237 66.7475 35.2212 69.635C36.2187 72.5225 37.8725 75.3838 40.1825 78.2188ZM60.5 62.8625C57.455 62.8625 54.8956 61.8256 52.8219 59.7519C50.7481 57.6781 49.7113 55.1188 49.7113 52.0738C49.7113 49.0288 50.7481 46.4694 52.8219 44.3956C54.8956 42.3219 57.455 41.285 60.5 41.285C63.545 41.285 66.1044 42.3219 68.1781 44.3956C70.2519 46.4694 71.2888 49.0288 71.2888 52.0738C71.2888 55.1188 70.2519 57.6781 68.1781 59.7519C66.1044 61.8256 63.545 62.8625 60.5 62.8625ZM60.5 92C56.195 92 52.1263 91.1731 48.2938 89.5194C44.4613 87.8656 41.1144 85.6081 38.2531 82.7469C35.3919 79.8856 33.1344 76.5388 31.4806 72.7063C29.8269 68.8738 29 64.805 29 60.5C29 56.1425 29.8269 52.0606 31.4806 48.2544C33.1344 44.4481 35.3919 41.1144 38.2531 38.2531C41.1144 35.3919 44.4613 33.1344 48.2938 31.4806C52.1263 29.8269 56.195 29 60.5 29C64.8575 29 68.9394 29.8269 72.7456 31.4806C76.5519 33.1344 79.8856 35.3919 82.7469 38.2531C85.6081 41.1144 87.8656 44.4481 89.5194 48.2544C91.1731 52.0606 92 56.1425 92 60.5C92 64.805 91.1731 68.8738 89.5194 72.7063C87.8656 76.5388 85.6081 79.8856 82.7469 82.7469C79.8856 85.6081 76.5519 87.8656 72.7456 89.5194C68.9394 91.1731 64.8575 92 60.5 92ZM60.5 87.275C63.3875 87.275 66.2094 86.855 68.9656 86.015C71.7219 85.175 74.4388 83.705 77.1163 81.605C74.4388 79.715 71.7088 78.2713 68.9263 77.2738C66.1438 76.2763 63.335 75.7775 60.5 75.7775C57.665 75.7775 54.8563 76.2763 52.0738 77.2738C49.2913 78.2713 46.5613 79.715 43.8838 81.605C46.5613 83.705 49.2781 85.175 52.0344 86.015C54.7906 86.855 57.6125 87.275 60.5 87.275ZM60.5 58.1375C62.285 58.1375 63.7419 57.5731 64.8706 56.4444C65.9994 55.3156 66.5638 53.8588 66.5638 52.0738C66.5638 50.2888 65.9994 48.8319 64.8706 47.7031C63.7419 46.5744 62.285 46.01 60.5 46.01C58.715 46.01 57.2581 46.5744 56.1294 47.7031C55.0006 48.8319 54.4363 50.2888 54.4363 52.0738C54.4363 53.8588 55.0006 55.3156 56.1294 56.4444C57.2581 57.5731 58.715 58.1375 60.5 58.1375Z" fill="#3993E5"/>
</svg>
