<svg width="122" height="122" viewBox="0 0 122 122" fill="none" xmlns="http://www.w3.org/2000/svg">
<rect width="122" height="122" rx="61" fill="#E5F8EE"/>
<path d="M83.996 49.6337L54.9193 78.7103C54.3906 79.239 53.862 79.5033 53.069 79.5033C52.276 79.5033 51.7473 79.239 51.2186 78.7103L38.002 65.4937C36.9447 64.4363 36.9447 62.8503 38.002 61.793C39.0593 60.7357 40.6453 60.7357 41.7027 61.793L53.069 73.1593L80.2953 45.933C81.3526 44.8757 82.9386 44.8757 83.996 45.933C85.0533 46.9903 85.0533 48.5763 83.996 49.6337Z" fill="black"/>
<mask id="mask0_731_4913" style="mask-type:alpha" maskUnits="userSpaceOnUse" x="37" y="45" width="48" height="35">
<path d="M83.996 49.6337L54.9193 78.7103C54.3906 79.239 53.862 79.5033 53.069 79.5033C52.276 79.5033 51.7473 79.239 51.2186 78.7103L38.002 65.4937C36.9447 64.4363 36.9447 62.8503 38.002 61.793C39.0593 60.7357 40.6453 60.7357 41.7027 61.793L53.069 73.1593L80.2953 45.933C81.3526 44.8757 82.9386 44.8757 83.996 45.933C85.0533 46.9903 85.0533 48.5763 83.996 49.6337Z" fill="white"/>
</mask>
<g mask="url(#mask0_731_4913)">
<rect x="29.2793" y="29.28" width="63.44" height="63.44" fill="#28C76F"/>
</g>
</svg>
