<svg width="22" height="22" viewBox="0 0 22 22" fill="none" xmlns="http://www.w3.org/2000/svg">
<path d="M5.9806 19.25C5.61393 19.25 5.2931 19.1125 5.0181 18.8375C4.7431 18.5625 4.6056 18.2417 4.6056 17.875V4.8125H4.35352C4.1549 4.8125 3.99067 4.74757 3.86081 4.61771C3.73095 4.48785 3.66602 4.32361 3.66602 4.125C3.66602 3.92639 3.73095 3.76215 3.86081 3.63229C3.99067 3.50243 4.1549 3.4375 4.35352 3.4375H7.97435C7.97435 3.23889 8.03928 3.07465 8.16914 2.94479C8.299 2.81493 8.46324 2.75 8.66185 2.75H13.3368C13.5355 2.75 13.6997 2.81493 13.8296 2.94479C13.9594 3.07465 14.0243 3.23889 14.0243 3.4375H17.6452C17.8438 3.4375 18.008 3.50243 18.1379 3.63229C18.2678 3.76215 18.3327 3.92639 18.3327 4.125C18.3327 4.32361 18.2678 4.48785 18.1379 4.61771C18.008 4.74757 17.8438 4.8125 17.6452 4.8125H17.3931V17.875C17.3931 18.2417 17.2556 18.5625 16.9806 18.8375C16.7056 19.1125 16.3848 19.25 16.0181 19.25H5.9806ZM5.9806 4.8125V17.875H16.0181V4.8125H5.9806ZM8.40977 15.2167C8.40977 15.4153 8.4747 15.5795 8.60456 15.7094C8.73442 15.8392 8.89865 15.9042 9.09727 15.9042C9.29588 15.9042 9.46011 15.8392 9.58997 15.7094C9.71983 15.5795 9.78477 15.4153 9.78477 15.2167V7.44792C9.78477 7.24931 9.71983 7.08507 9.58997 6.95521C9.46011 6.82535 9.29588 6.76042 9.09727 6.76042C8.89865 6.76042 8.73442 6.82535 8.60456 6.95521C8.4747 7.08507 8.40977 7.24931 8.40977 7.44792V15.2167ZM12.2139 15.2167C12.2139 15.4153 12.2789 15.5795 12.4087 15.7094C12.5386 15.8392 12.7028 15.9042 12.9014 15.9042C13.1 15.9042 13.2643 15.8392 13.3941 15.7094C13.524 15.5795 13.5889 15.4153 13.5889 15.2167V7.44792C13.5889 7.24931 13.524 7.08507 13.3941 6.95521C13.2643 6.82535 13.1 6.76042 12.9014 6.76042C12.7028 6.76042 12.5386 6.82535 12.4087 6.95521C12.2789 7.08507 12.2139 7.24931 12.2139 7.44792V15.2167ZM5.9806 4.8125V17.875V4.8125Z" fill="#034D91"/>
</svg>
