<svg width="40" height="40" viewBox="0 0 40 40" fill="none" xmlns="http://www.w3.org/2000/svg">
<circle cx="20.0384" cy="20.0003" r="19.4178" fill="#D6EAFF"/>
<path d="M20.0383 25.0304C19.9305 25.0304 19.8316 25.0106 19.7417 24.971C19.6518 24.9315 19.5619 24.8623 19.472 24.7634L15.3996 20.2838C15.2378 20.1058 15.1614 19.8932 15.1704 19.646C15.1794 19.3987 15.2648 19.1861 15.4266 19.0081C15.5884 18.8301 15.7817 18.7411 16.0064 18.7411C16.2312 18.7411 16.4245 18.8301 16.5863 19.0081L19.2293 21.9451V11.8289C19.2293 11.5718 19.3057 11.3592 19.4585 11.1911C19.6113 11.023 19.8046 10.939 20.0383 10.939C20.2721 10.939 20.4654 11.023 20.6182 11.1911C20.771 11.3592 20.8474 11.5718 20.8474 11.8289V21.9451L23.5174 19.0081C23.6792 18.8301 23.8725 18.7411 24.0972 18.7411C24.3219 18.7411 24.5152 18.8301 24.677 19.0081C24.8389 19.1861 24.9198 19.3987 24.9198 19.646C24.9198 19.8932 24.8389 20.1058 24.677 20.2838L20.6047 24.7634C20.5148 24.8623 20.4249 24.9315 20.335 24.971C20.2451 25.0106 20.1462 25.0304 20.0383 25.0304ZM13.0264 29.9253C12.5948 29.9253 12.2173 29.7473 11.8936 29.3913C11.57 29.0353 11.4082 28.62 11.4082 28.1453V24.793C11.4082 24.5359 11.4846 24.3233 11.6374 24.1552C11.7903 23.9871 11.9835 23.903 12.2173 23.903C12.451 23.903 12.6443 23.9871 12.7971 24.1552C12.9499 24.3233 13.0264 24.5359 13.0264 24.793V28.1453H27.0503V24.793C27.0503 24.5359 27.1267 24.3233 27.2796 24.1552C27.4324 23.9871 27.6257 23.903 27.8594 23.903C28.0931 23.903 28.2864 23.9871 28.4392 24.1552C28.5921 24.3233 28.6685 24.5359 28.6685 24.793V28.1453C28.6685 28.62 28.5067 29.0353 28.183 29.3913C27.8594 29.7473 27.4818 29.9253 27.0503 29.9253H13.0264Z" fill="#00498D"/>
</svg>
