<svg width="16" height="17" viewBox="0 0 16 17" fill="none" xmlns="http://www.w3.org/2000/svg">
<path fill-rule="evenodd" clip-rule="evenodd" d="M4.05995 4.4229C4.05995 2.21104 5.90136 0.417969 8.17285 0.417969C10.4443 0.417969 12.2858 2.21104 12.2858 4.4229C12.2858 6.63477 10.4443 8.42784 8.17285 8.42784C5.90136 8.42784 4.05995 6.63477 4.05995 4.4229ZM8.17285 1.83147C6.70306 1.83147 5.51156 2.9917 5.51156 4.4229C5.51156 5.85411 6.70306 7.01433 8.17285 7.01433C9.64264 7.01433 10.8341 5.85411 10.8341 4.4229C10.8341 2.9917 9.64264 1.83147 8.17285 1.83147Z" fill="#00498D"/>
<path fill-rule="evenodd" clip-rule="evenodd" d="M4.30188 11.2548C3.09933 11.2548 2.12446 12.2041 2.12446 13.3751V14.4949C2.12446 14.5119 2.13715 14.5265 2.15444 14.5292C6.14033 15.1629 10.2054 15.1629 14.1913 14.5292C14.2085 14.5265 14.2212 14.5119 14.2212 14.4949V13.3751C14.2212 12.2041 13.2464 11.2548 12.0438 11.2548H11.7139C11.6884 11.2548 11.6631 11.2588 11.6388 11.2665L10.8013 11.5328C9.09336 12.0758 7.25235 12.0758 5.54445 11.5328L4.70685 11.2665C4.68261 11.2588 4.65726 11.2548 4.63176 11.2548H4.30188ZM0.672852 13.3751C0.672852 11.4235 2.29762 9.84134 4.30188 9.84134H4.63176C4.8103 9.84134 4.98772 9.86883 5.15744 9.9228L5.99503 10.1891C7.41015 10.6391 8.93556 10.6391 10.3507 10.1891L11.1883 9.9228C11.358 9.86883 11.5354 9.84134 11.7139 9.84134H12.0438C14.0481 9.84134 15.6729 11.4235 15.6729 13.3751V14.4949C15.6729 15.2047 15.1446 15.8099 14.4252 15.9242C10.2844 16.5825 6.06133 16.5825 1.92053 15.9242C1.20113 15.8099 0.672852 15.2047 0.672852 14.4949V13.3751Z" fill="#00498D"/>
</svg>
