<svg width="59" height="36" viewBox="0 0 59 36" fill="none" xmlns="http://www.w3.org/2000/svg">
<path d="M4.54651 35.0859V31.3346L2.90964 33.7903H2.8758L1.25502 31.3591V35.0859H0V29.3398H1.37949L2.90964 31.7694L4.43869 29.3398H5.81792V35.0859H4.54651Z" fill="white"/>
<path d="M9.45174 30.8199L8.67875 32.683H10.2242L9.45174 30.8199ZM11.2139 35.0886L10.6803 33.7999H8.22155L7.68903 35.0886H6.38379L8.878 29.3008H10.0574L12.5522 35.0886H11.2139Z" fill="white"/>
<path d="M13.1143 35.0859V29.3398H14.3947V33.9373H17.295V35.0859H13.1143Z" fill="white"/>
<path d="M20.6595 30.8199L19.8855 32.683H21.4321L20.6595 30.8199ZM22.4223 35.0886L21.8892 33.7999H19.4294L18.8969 35.0886H17.5928L20.0851 29.3008H21.2653L23.7595 35.0886H22.4223Z" fill="white"/>
<path d="M26.3321 32.7958V35.0859H25.0526V32.8199L22.8174 29.3398H24.3128L25.702 31.6469L27.1141 29.3398H28.569L26.3321 32.7958Z" fill="white"/>
<path d="M30.9782 35.1676C30.0979 35.1676 29.2074 34.8659 28.5098 34.2487L29.2668 33.3553C29.7892 33.7819 30.3385 34.052 31.0032 34.052C31.5274 34.052 31.8433 33.8475 31.8433 33.5109V33.4937C31.8433 33.1737 31.6429 33.01 30.6711 32.7635C29.4985 32.4679 28.7427 32.1473 28.7427 31.0061V30.9903C28.7427 29.9465 29.5898 29.2578 30.779 29.2578C31.6259 29.2578 32.3502 29.5209 32.9406 29.9892L32.274 30.9416C31.7594 30.5884 31.2529 30.3741 30.7636 30.3741C30.2719 30.3741 30.0152 30.5966 30.0152 30.8759V30.8922C30.0152 31.2687 30.2637 31.3932 31.2695 31.6474C32.4492 31.9508 33.115 32.3696 33.115 33.3715V33.3879C33.115 34.5293 32.2333 35.1676 30.9782 35.1676Z" fill="white"/>
<path d="M34.1152 29.3398H35.3957V35.0859H34.1152V29.3398Z" fill="white"/>
<path d="M39.2552 30.8199L38.4809 32.683H40.0267L39.2552 30.8199ZM41.0165 35.0886L40.4836 33.7999H38.024L37.4914 35.0886H36.1865L38.6813 29.3008H39.8607L42.3547 35.0886H41.0165Z" fill="white"/>
<path fill-rule="evenodd" clip-rule="evenodd" d="M13.82 10.2702C13.82 12.1849 12.3581 13.4391 9.95664 13.4391H6.75413V6.9983H9.9228C12.3581 6.9983 13.82 8.11193 13.82 10.2019V10.2702ZM41.8429 10.8392C42.2372 12.0648 42.3573 13.2936 42.3573 14.6422C42.3573 14.6571 42.3568 14.6716 42.3562 14.6859V14.686C42.3556 14.7 42.3551 14.7139 42.3551 14.728C43.8845 15.466 45.7124 15.9712 47.7789 16.4314C51.1618 17.1987 51.9798 17.7561 51.9798 18.7641V18.8347C51.9798 19.8796 50.9839 20.5052 49.1302 20.5052C46.5439 20.5052 44.0718 19.6858 41.8142 18.1366C41.2533 20.0865 40.2347 21.8547 38.8813 23.3346C41.718 25.177 45.2258 26.1096 48.8813 26.1096C54.9363 26.1096 58.9603 23.1501 58.9603 18.1723V18.1032C58.9603 13.5428 55.3993 11.7329 49.6664 10.5144C46.2108 9.74773 45.3562 9.26133 45.3562 8.14606V8.07701C45.3562 7.20766 46.1758 6.51027 47.8496 6.51027C50.0576 6.51027 52.5493 7.3466 54.8274 8.91224L58.2829 4.14216C55.5768 2.01835 52.2644 0.835938 48.0272 0.835938C43.6083 0.835938 40.4619 2.69527 39.1157 5.45506C36.7646 2.6303 33.1363 0.835938 28.8826 0.835938C24.9055 0.835938 21.4536 2.42504 19.0849 4.95557C17.4008 2.62293 14.3741 1.32342 10.4447 1.32342H0V25.6929H6.75413V18.7286H10.0958C12.0619 18.7286 13.803 18.4065 15.328 17.7782C15.0772 16.7729 14.9399 15.7231 14.9399 14.6422C14.9399 11.8666 15.8251 9.29163 17.3317 7.1678C17.3683 7.09902 17.5061 7.12277 17.454 7.21749C16.3704 9.07572 15.7235 11.2102 15.7235 13.5081V13.5772C15.7235 20.5756 21.2933 26.1807 28.8134 26.1807C36.3321 26.1807 41.9731 20.5052 41.9731 13.5081V13.4391C41.9731 12.5556 41.8822 11.6971 41.7103 10.8663C41.7047 10.7918 41.8153 10.7601 41.8429 10.8392ZM20.4116 3.7373C20.4108 3.73658 20.41 3.73578 20.4093 3.73518C22.2304 2.27435 24.4908 1.28573 27.0259 0.958188L36.9852 12.0994C37.2924 12.4857 37.4781 12.9729 37.4781 13.5051C37.4781 14.0374 37.2924 14.5257 36.9852 14.91L27.0249 26.0537L27.0153 26.0648C27.0153 26.0648 27.015 26.065 27.0146 26.0654C27.0144 26.0657 27.0142 26.0659 27.0141 26.0662C24.4621 25.751 22.1931 24.7733 20.3724 23.3173L20.386 23.3018L27.8872 14.91C28.1951 14.5257 28.3793 14.0374 28.3793 13.5051C28.3793 12.9729 28.1951 12.4857 27.8872 12.0994L20.4264 3.7532L20.4133 3.73899C20.4133 3.73899 20.4126 3.73822 20.4116 3.7373Z" fill="white"/>
</svg>
