<svg width="296" height="168" viewBox="0 0 296 168" fill="none" xmlns="http://www.w3.org/2000/svg">
<path d="M23.4838 166.836V148.06L15.2909 160.351H15.1215L7.00911 148.183V166.836H0.727432V138.076H7.63209L15.2909 150.236L22.9441 138.076H29.8475V166.836H23.4838Z" fill="white"/>
<path d="M48.0303 145.47L44.1613 154.796H51.8966L48.0303 145.47ZM56.8504 166.836L54.1795 160.386H41.8729L39.2075 166.836H32.6745L45.1586 137.867H51.0618L63.5487 166.836H56.8504Z" fill="white"/>
<path d="M66.3676 166.836V138.076H72.7763V161.087H87.2933V166.836H66.3676Z" fill="white"/>
<path d="M104.137 145.47L100.263 154.796H108.004L104.137 145.47ZM112.961 166.836L110.292 160.386H97.9805L95.3152 166.836H88.7875L101.262 137.867H107.169L119.653 166.836H112.961Z" fill="white"/>
<path d="M132.522 155.374V166.836H126.118V155.494L114.93 138.076H122.415L129.368 149.623L136.436 138.076H143.718L132.522 155.374Z" fill="white"/>
<path d="M155.783 167.241C151.377 167.241 146.92 165.731 143.428 162.642L147.217 158.17C149.832 160.306 152.581 161.657 155.908 161.657C158.532 161.657 160.113 160.634 160.113 158.949V158.863C160.113 157.262 159.11 156.442 154.246 155.208C148.377 153.729 144.594 152.124 144.594 146.412V146.333C144.594 141.108 148.834 137.661 154.786 137.661C159.025 137.661 162.65 138.978 165.605 141.322L162.269 146.089C159.693 144.321 157.158 143.249 154.709 143.249C152.248 143.249 150.963 144.362 150.963 145.76V145.842C150.963 147.726 152.207 148.349 157.241 149.622C163.146 151.14 166.478 153.237 166.478 158.251V158.333C166.478 164.047 162.065 167.241 155.783 167.241Z" fill="white"/>
<path d="M171.484 138.076H177.893V166.836H171.484V138.076Z" fill="white"/>
<path d="M197.212 145.47L193.337 154.796H201.074L197.212 145.47ZM206.028 166.836L203.361 160.386H191.05L188.384 166.836H181.853L194.34 137.867H200.243L212.726 166.836H206.028Z" fill="white"/>
<path fill-rule="evenodd" clip-rule="evenodd" d="M69.1722 47.2205C69.1722 56.8042 61.855 63.0818 49.8354 63.0818H33.806V30.8441H49.666C61.855 30.8441 69.1722 36.4181 69.1722 46.879V47.2205ZM209.434 50.069C211.407 56.2031 212.009 62.3536 212.009 69.1039C212.009 69.1783 212.006 69.2507 212.003 69.3224C212 69.3928 211.997 69.4625 211.997 69.5329C219.652 73.227 228.801 75.7558 239.145 78.0592C256.077 81.8995 260.172 84.6892 260.172 89.7345V90.0883C260.172 95.3181 255.187 98.4493 245.909 98.4493C232.963 98.4493 220.59 94.3481 209.29 86.5937C206.483 96.3537 201.384 105.204 194.61 112.611C208.809 121.833 226.366 126.501 244.663 126.501C274.969 126.501 295.11 111.688 295.11 86.7726V86.427C295.11 63.601 277.287 54.5418 248.592 48.4432C231.296 44.6056 227.019 42.1711 227.019 36.5889V36.2433C227.019 31.892 231.121 28.4014 239.499 28.4014C250.55 28.4014 263.022 32.5874 274.424 40.4238L291.72 16.5485C278.175 5.91826 261.596 0 240.388 0C218.27 0 202.522 9.30639 195.784 23.1198C184.016 8.98123 165.855 0 144.564 0C124.658 0 107.38 7.95386 95.5244 20.6197C87.0951 8.94434 71.9456 2.43998 52.2781 2.43998H0V124.415H33.806V89.557H50.5321C60.3727 89.557 69.0875 87.9448 76.7204 84.7999C75.4648 79.7682 74.7777 74.5139 74.7777 69.1039C74.7777 55.2113 79.2082 42.3228 86.7495 31.6925C86.9325 31.3482 87.6225 31.4671 87.3615 31.9412C81.9378 41.2421 78.7 51.9256 78.7 63.4274V63.7731C78.7 98.8018 106.578 126.857 144.218 126.857C181.851 126.857 210.085 98.4493 210.085 63.4274V63.0818C210.085 58.6595 209.631 54.3629 208.77 50.2042C208.742 49.8313 209.295 49.6728 209.434 50.069ZM114.072 29.1896L108.808 23.1625C123.519 12.2801 133.546 11.6183 141.782 11.0748C142.278 11.0421 142.767 11.0098 143.251 10.9757L184.626 57.0864C185.892 58.7612 186.791 61.9125 186.791 64.2205C186.791 66.5285 186.004 68.255 185.02 70.2722L143.445 116.619V116.791H141.698C129.3 116.299 119.139 112.598 108.832 104.614L139.632 70.0016C140.9 68.335 141.305 65.6675 141.305 63.3595C141.305 61.0515 140.378 58.5626 139.11 56.8878L114.072 29.1896Z" fill="white"/>
</svg>
