<svg width="26" height="23" viewBox="0 0 26 23" fill="none" xmlns="http://www.w3.org/2000/svg">
<path d="M20.4069 18.9529L14.2129 13.4299C13.6989 13.8272 13.0992 14.1365 12.4139 14.3581C11.7285 14.5796 11.0003 14.6904 10.2293 14.6904C8.37878 14.6904 6.81102 14.1174 5.52597 12.9716C4.24092 11.8258 3.59839 10.4431 3.59839 8.8237C3.59839 7.20425 4.24092 5.82161 5.52597 4.67578C6.81102 3.52995 8.37022 2.95703 10.2036 2.95703C12.0198 2.95703 13.5661 3.52995 14.8426 4.67578C16.1191 5.82161 16.7573 7.20425 16.7573 8.8237C16.7573 9.48064 16.6374 10.1147 16.3975 10.7258C16.1576 11.3369 15.7978 11.9098 15.3181 12.4445L21.5634 17.9674C21.7176 18.0897 21.7947 18.2463 21.7947 18.4372C21.7947 18.6282 21.7091 18.8001 21.5377 18.9529C21.3835 19.0904 21.195 19.1591 20.9723 19.1591C20.7496 19.1591 20.5611 19.0904 20.4069 18.9529ZM10.2036 13.3154C11.5914 13.3154 12.7737 12.8761 13.7503 11.9977C14.7269 11.1192 15.2153 10.0612 15.2153 8.8237C15.2153 7.5862 14.7269 6.52821 13.7503 5.64974C12.7737 4.77127 11.5914 4.33203 10.2036 4.33203C8.79857 4.33203 7.60347 4.77127 6.61826 5.64974C5.63306 6.52821 5.14045 7.5862 5.14045 8.8237C5.14045 10.0612 5.63306 11.1192 6.61826 11.9977C7.60347 12.8761 8.79857 13.3154 10.2036 13.3154Z" fill="#00498D"/>
</svg>
