<svg width="39" height="39" viewBox="0 0 39 39" fill="none" xmlns="http://www.w3.org/2000/svg">
<circle cx="19.4178" cy="19.4178" r="19.4178" fill="#E5F8EE"/>
<path d="M24.8418 14.3836V10.4281H14.8568V14.3836H13.1739V9.52911C13.1739 9.2694 13.2534 9.05465 13.4123 8.88484C13.5712 8.71504 13.7723 8.63013 14.0153 8.63013H25.6833C25.9264 8.63013 26.1274 8.71504 26.2863 8.88484C26.4453 9.05465 26.5247 9.2694 26.5247 9.52911V14.3836H24.8418ZM10.313 16.1815C10.313 16.1815 10.4346 16.1815 10.6776 16.1815C10.9207 16.1815 11.2292 16.1815 11.6032 16.1815H28.0954C28.4694 16.1815 28.7779 16.1815 29.021 16.1815C29.2641 16.1815 29.3856 16.1815 29.3856 16.1815H26.5247H13.1739H10.313ZM27.1137 19.0283C27.3381 19.0283 27.5345 18.9384 27.7027 18.7586C27.871 18.5788 27.9552 18.369 27.9552 18.1293C27.9552 17.8896 27.871 17.6798 27.7027 17.5C27.5345 17.3202 27.3381 17.2303 27.1137 17.2303C26.8893 17.2303 26.693 17.3202 26.5247 17.5C26.3564 17.6798 26.2723 17.8896 26.2723 18.1293C26.2723 18.369 26.3564 18.5788 26.5247 18.7586C26.693 18.9384 26.8893 19.0283 27.1137 19.0283ZM14.8568 28.4075H24.8418V22.6541H14.8568V28.4075ZM14.8568 30.2055C14.3893 30.2055 13.992 30.0307 13.6647 29.6811C13.3375 29.3315 13.1739 28.907 13.1739 28.4075V24.9315H9.47157C9.22849 24.9315 9.02748 24.8466 8.86854 24.6768C8.7096 24.507 8.63013 24.2922 8.63013 24.0325V17.5599C8.63013 16.661 8.91529 15.9068 9.4856 15.2975C10.0559 14.6882 10.7618 14.3836 11.6032 14.3836H28.0954C28.9368 14.3836 29.6427 14.6882 30.213 15.2975C30.7833 15.9068 31.0685 16.661 31.0685 17.5599V24.0325C31.0685 24.2922 30.989 24.507 30.8301 24.6768C30.6711 24.8466 30.4701 24.9315 30.2271 24.9315H26.5247V28.4075C26.5247 28.907 26.3611 29.3315 26.0339 29.6811C25.7067 30.0307 25.3093 30.2055 24.8418 30.2055H14.8568ZM29.3856 23.1336V17.5599C29.3856 17.1604 29.2641 16.8308 29.021 16.5711C28.7779 16.3114 28.4694 16.1815 28.0954 16.1815H11.6032C11.2292 16.1815 10.9207 16.3114 10.6776 16.5711C10.4346 16.8308 10.313 17.1604 10.313 17.5599V23.1336H13.1739V20.8562H26.5247V23.1336H29.3856Z" fill="#28C76F"/>
</svg>
