<svg width="160" height="16" viewBox="0 0 160 16" fill="none" xmlns="http://www.w3.org/2000/svg">
<path d="M5.2 15.14C4.22667 15.14 3.34667 14.9733 2.56 14.64C1.78667 14.3067 1.17333 13.8267 0.72 13.2C0.266667 12.5733 0.0333334 11.8333 0.0200001 10.98H3.02C3.06 11.5533 3.26 12.0067 3.62 12.34C3.99333 12.6733 4.5 12.84 5.14 12.84C5.79333 12.84 6.30667 12.6867 6.68 12.38C7.05333 12.06 7.24 11.6467 7.24 11.14C7.24 10.7267 7.11333 10.3867 6.86 10.12C6.60667 9.85333 6.28667 9.64667 5.9 9.5C5.52667 9.34 5.00667 9.16667 4.34 8.98C3.43333 8.71333 2.69333 8.45333 2.12 8.2C1.56 7.93333 1.07333 7.54 0.66 7.02C0.26 6.48667 0.0600001 5.78 0.0600001 4.9C0.0600001 4.07333 0.266667 3.35333 0.68 2.74C1.09333 2.12667 1.67333 1.66 2.42 1.34C3.16667 1.00667 4.02 0.84 4.98 0.84C6.42 0.84 7.58667 1.19333 8.48 1.9C9.38667 2.59333 9.88667 3.56667 9.98 4.82H6.9C6.87333 4.34 6.66667 3.94667 6.28 3.64C5.90667 3.32 5.40667 3.16 4.78 3.16C4.23333 3.16 3.79333 3.3 3.46 3.58C3.14 3.86 2.98 4.26667 2.98 4.8C2.98 5.17333 3.1 5.48667 3.34 5.74C3.59333 5.98 3.9 6.18 4.26 6.34C4.63333 6.48667 5.15333 6.66 5.82 6.86C6.72667 7.12667 7.46667 7.39333 8.04 7.66C8.61333 7.92667 9.10667 8.32667 9.52 8.86C9.93333 9.39333 10.14 10.0933 10.14 10.96C10.14 11.7067 9.94667 12.4 9.56 13.04C9.17333 13.68 8.60667 14.1933 7.86 14.58C7.11333 14.9533 6.22667 15.14 5.2 15.14ZM22.8675 9.22C22.8675 9.62 22.8408 9.98 22.7875 10.3H14.6875C14.7542 11.1 15.0342 11.7267 15.5275 12.18C16.0208 12.6333 16.6275 12.86 17.3475 12.86C18.3875 12.86 19.1275 12.4133 19.5675 11.52H22.5875C22.2675 12.5867 21.6542 13.4667 20.7475 14.16C19.8408 14.84 18.7275 15.18 17.4075 15.18C16.3408 15.18 15.3808 14.9467 14.5275 14.48C13.6875 14 13.0275 13.3267 12.5475 12.46C12.0808 11.5933 11.8475 10.5933 11.8475 9.46C11.8475 8.31333 12.0808 7.30667 12.5475 6.44C13.0142 5.57333 13.6675 4.90667 14.5075 4.44C15.3475 3.97333 16.3142 3.74 17.4075 3.74C18.4608 3.74 19.4008 3.96667 20.2275 4.42C21.0675 4.87333 21.7142 5.52 22.1675 6.36C22.6342 7.18667 22.8675 8.14 22.8675 9.22ZM19.9675 8.42C19.9542 7.7 19.6942 7.12667 19.1875 6.7C18.6808 6.26 18.0608 6.04 17.3275 6.04C16.6342 6.04 16.0475 6.25333 15.5675 6.68C15.1008 7.09333 14.8142 7.67333 14.7075 8.42H19.9675ZM31.0513 3.76C32.3713 3.76 33.4379 4.18 34.2513 5.02C35.0646 5.84667 35.4713 7.00667 35.4713 8.5V15H32.6713V8.88C32.6713 8 32.4513 7.32667 32.0113 6.86C31.5713 6.38 30.9713 6.14 30.2113 6.14C29.4379 6.14 28.8246 6.38 28.3713 6.86C27.9313 7.32667 27.7113 8 27.7113 8.88V15H24.9113V3.92H27.7113V5.3C28.0846 4.82 28.5579 4.44667 29.1313 4.18C29.7179 3.9 30.3579 3.76 31.0513 3.76ZM37.4139 9.42C37.4139 8.3 37.6339 7.30667 38.0739 6.44C38.5272 5.57333 39.1406 4.90667 39.9139 4.44C40.6872 3.97333 41.5472 3.74 42.4939 3.74C43.2139 3.74 43.9006 3.9 44.5539 4.22C45.2072 4.52667 45.7272 4.94 46.1139 5.46V0.2H48.9539V15H46.1139V13.36C45.7672 13.9067 45.2806 14.3467 44.6539 14.68C44.0272 15.0133 43.3006 15.18 42.4739 15.18C41.5406 15.18 40.6872 14.94 39.9139 14.46C39.1406 13.98 38.5272 13.3067 38.0739 12.44C37.6339 11.56 37.4139 10.5533 37.4139 9.42ZM46.1339 9.46C46.1339 8.78 46.0006 8.2 45.7339 7.72C45.4672 7.22667 45.1072 6.85333 44.6539 6.6C44.2006 6.33333 43.7139 6.2 43.1939 6.2C42.6739 6.2 42.1939 6.32667 41.7539 6.58C41.3139 6.83333 40.9539 7.20667 40.6739 7.7C40.4072 8.18 40.2739 8.75333 40.2739 9.42C40.2739 10.0867 40.4072 10.6733 40.6739 11.18C40.9539 11.6733 41.3139 12.0533 41.7539 12.32C42.2072 12.5867 42.6872 12.72 43.1939 12.72C43.7139 12.72 44.2006 12.5933 44.6539 12.34C45.1072 12.0733 45.4672 11.7 45.7339 11.22C46.0006 10.7267 46.1339 10.14 46.1339 9.46ZM61.8686 5.36C61.8686 6.10667 61.6886 6.80667 61.3286 7.46C60.9819 8.11333 60.4286 8.64 59.6686 9.04C58.9219 9.44 57.9753 9.64 56.8286 9.64H54.4886V15H51.6886V1.04H56.8286C57.9086 1.04 58.8286 1.22667 59.5886 1.6C60.3486 1.97333 60.9153 2.48667 61.2886 3.14C61.6753 3.79333 61.8686 4.53333 61.8686 5.36ZM56.7086 7.38C57.4819 7.38 58.0553 7.20667 58.4286 6.86C58.8019 6.5 58.9886 6 58.9886 5.36C58.9886 4 58.2286 3.32 56.7086 3.32H54.4886V7.38H56.7086ZM63.1366 9.42C63.1366 8.3 63.3566 7.30667 63.7966 6.44C64.2499 5.57333 64.8566 4.90667 65.6166 4.44C66.3899 3.97333 67.2499 3.74 68.1966 3.74C69.0232 3.74 69.7432 3.90667 70.3566 4.24C70.9832 4.57333 71.4832 4.99333 71.8566 5.5V3.92H74.6766V15H71.8566V13.38C71.4966 13.9 70.9966 14.3333 70.3566 14.68C69.7299 15.0133 69.0032 15.18 68.1766 15.18C67.2432 15.18 66.3899 14.94 65.6166 14.46C64.8566 13.98 64.2499 13.3067 63.7966 12.44C63.3566 11.56 63.1366 10.5533 63.1366 9.42ZM71.8566 9.46C71.8566 8.78 71.7232 8.2 71.4566 7.72C71.1899 7.22667 70.8299 6.85333 70.3766 6.6C69.9232 6.33333 69.4366 6.2 68.9166 6.2C68.3966 6.2 67.9166 6.32667 67.4766 6.58C67.0366 6.83333 66.6766 7.20667 66.3966 7.7C66.1299 8.18 65.9966 8.75333 65.9966 9.42C65.9966 10.0867 66.1299 10.6733 66.3966 11.18C66.6766 11.6733 67.0366 12.0533 67.4766 12.32C67.9299 12.5867 68.4099 12.72 68.9166 12.72C69.4366 12.72 69.9232 12.5933 70.3766 12.34C70.8299 12.0733 71.1899 11.7 71.4566 11.22C71.7232 10.7267 71.8566 10.14 71.8566 9.46ZM80.2113 5.64C80.5713 5.05333 81.0379 4.59333 81.6113 4.26C82.1979 3.92667 82.8646 3.76 83.6113 3.76V6.7H82.8713C81.9913 6.7 81.3246 6.90667 80.8713 7.32C80.4313 7.73333 80.2113 8.45333 80.2113 9.48V15H77.4113V3.92H80.2113V5.64ZM84.7772 9.46C84.7772 8.31333 85.0105 7.31333 85.4772 6.46C85.9439 5.59333 86.5905 4.92667 87.4172 4.46C88.2439 3.98 89.1905 3.74 90.2572 3.74C91.6305 3.74 92.7639 4.08667 93.6572 4.78C94.5639 5.46 95.1705 6.42 95.4772 7.66H92.4572C92.2972 7.18 92.0239 6.80667 91.6372 6.54C91.2639 6.26 90.7972 6.12 90.2372 6.12C89.4372 6.12 88.8039 6.41333 88.3372 7C87.8705 7.57333 87.6372 8.39333 87.6372 9.46C87.6372 10.5133 87.8705 11.3333 88.3372 11.92C88.8039 12.4933 89.4372 12.78 90.2372 12.78C91.3705 12.78 92.1105 12.2733 92.4572 11.26H95.4772C95.1705 12.46 94.5639 13.4133 93.6572 14.12C92.7505 14.8267 91.6172 15.18 90.2572 15.18C89.1905 15.18 88.2439 14.9467 87.4172 14.48C86.5905 14 85.9439 13.3333 85.4772 12.48C85.0105 11.6133 84.7772 10.6067 84.7772 9.46ZM107.828 9.22C107.828 9.62 107.802 9.98 107.748 10.3H99.6484C99.7151 11.1 99.9951 11.7267 100.488 12.18C100.982 12.6333 101.588 12.86 102.308 12.86C103.348 12.86 104.088 12.4133 104.528 11.52H107.548C107.228 12.5867 106.615 13.4667 105.708 14.16C104.802 14.84 103.688 15.18 102.368 15.18C101.302 15.18 100.342 14.9467 99.4884 14.48C98.6484 14 97.9884 13.3267 97.5084 12.46C97.0418 11.5933 96.8084 10.5933 96.8084 9.46C96.8084 8.31333 97.0418 7.30667 97.5084 6.44C97.9751 5.57333 98.6284 4.90667 99.4684 4.44C100.308 3.97333 101.275 3.74 102.368 3.74C103.422 3.74 104.362 3.96667 105.188 4.42C106.028 4.87333 106.675 5.52 107.128 6.36C107.595 7.18667 107.828 8.14 107.828 9.22ZM104.928 8.42C104.915 7.7 104.655 7.12667 104.148 6.7C103.642 6.26 103.022 6.04 102.288 6.04C101.595 6.04 101.008 6.25333 100.528 6.68C100.062 7.09333 99.7751 7.67333 99.6684 8.42H104.928ZM112.672 0.2V15H109.872V0.2H112.672Z" fill="#034D91"/>
<path d="M130.764 5.48C130.764 6.29333 130.578 7.04 130.204 7.72C129.831 8.38667 129.258 8.92667 128.484 9.34C127.711 9.75333 126.751 9.96 125.604 9.96H123.484V15H120.064V0.96H125.604C126.724 0.96 127.671 1.15333 128.444 1.54C129.218 1.92667 129.798 2.46 130.184 3.14C130.571 3.82 130.764 4.6 130.764 5.48ZM125.344 7.24C125.998 7.24 126.484 7.08667 126.804 6.78C127.124 6.47333 127.284 6.04 127.284 5.48C127.284 4.92 127.124 4.48667 126.804 4.18C126.484 3.87333 125.998 3.72 125.344 3.72H123.484V7.24H125.344ZM139.705 15L136.785 9.7H135.965V15H132.545V0.96H138.285C139.391 0.96 140.331 1.15333 141.105 1.54C141.891 1.92667 142.478 2.46 142.865 3.14C143.251 3.80667 143.445 4.55333 143.445 5.38C143.445 6.31333 143.178 7.14667 142.645 7.88C142.125 8.61333 141.351 9.13333 140.325 9.44L143.565 15H139.705ZM135.965 7.28H138.085C138.711 7.28 139.178 7.12667 139.485 6.82C139.805 6.51333 139.965 6.08 139.965 5.52C139.965 4.98667 139.805 4.56667 139.485 4.26C139.178 3.95333 138.711 3.8 138.085 3.8H135.965V7.28ZM152.232 15.14C150.912 15.14 149.698 14.8333 148.592 14.22C147.498 13.6067 146.625 12.7533 145.972 11.66C145.332 10.5533 145.012 9.31333 145.012 7.94C145.012 6.56667 145.332 5.33333 145.972 4.24C146.625 3.14667 147.498 2.29333 148.592 1.68C149.698 1.06667 150.912 0.76 152.232 0.76C153.552 0.76 154.758 1.06667 155.852 1.68C156.958 2.29333 157.825 3.14667 158.452 4.24C159.092 5.33333 159.412 6.56667 159.412 7.94C159.412 9.31333 159.092 10.5533 158.452 11.66C157.812 12.7533 156.945 13.6067 155.852 14.22C154.758 14.8333 153.552 15.14 152.232 15.14ZM152.232 12.02C153.352 12.02 154.245 11.6467 154.912 10.9C155.592 10.1533 155.932 9.16667 155.932 7.94C155.932 6.7 155.592 5.71333 154.912 4.98C154.245 4.23333 153.352 3.86 152.232 3.86C151.098 3.86 150.192 4.22667 149.512 4.96C148.845 5.69333 148.512 6.68667 148.512 7.94C148.512 9.18 148.845 10.1733 149.512 10.92C150.192 11.6533 151.098 12.02 152.232 12.02Z" fill="#F86262"/>
</svg>
