<svg width="159" height="55" viewBox="0 0 159 55" fill="none" xmlns="http://www.w3.org/2000/svg">
<path d="M7.66242 21.196C6.29976 21.196 5.06776 20.9627 3.96642 20.496C2.88376 20.0293 2.02509 19.3573 1.39042 18.48C0.755755 17.6027 0.429089 16.5667 0.410422 15.372H4.61042C4.66642 16.1747 4.94642 16.8093 5.45042 17.276C5.97309 17.7427 6.68242 17.976 7.57842 17.976C8.49309 17.976 9.21176 17.7613 9.73442 17.332C10.2571 16.884 10.5184 16.3053 10.5184 15.596C10.5184 15.0173 10.3411 14.5413 9.98642 14.168C9.63176 13.7947 9.18376 13.5053 8.64242 13.3C8.11976 13.076 7.39176 12.8333 6.45842 12.572C5.18909 12.1987 4.15309 11.8347 3.35042 11.48C2.56642 11.1067 1.88509 10.556 1.30642 9.828C0.746422 9.08133 0.466422 8.092 0.466422 6.86C0.466422 5.70267 0.755755 4.69467 1.33442 3.836C1.91309 2.97733 2.72509 2.324 3.77042 1.876C4.81576 1.40933 6.01042 1.176 7.35442 1.176C9.37042 1.176 11.0038 1.67067 12.2544 2.66C13.5238 3.63067 14.2238 4.99333 14.3544 6.748H10.0424C10.0051 6.076 9.71576 5.52533 9.17442 5.096C8.65176 4.648 7.95176 4.424 7.07442 4.424C6.30909 4.424 5.69309 4.62 5.22642 5.012C4.77842 5.404 4.55442 5.97333 4.55442 6.72C4.55442 7.24267 4.72242 7.68133 5.05842 8.036C5.41309 8.372 5.84242 8.652 6.34642 8.876C6.86909 9.08133 7.59709 9.324 8.53042 9.604C9.79976 9.97733 10.8358 10.3507 11.6384 10.724C12.4411 11.0973 13.1318 11.6573 13.7104 12.404C14.2891 13.1507 14.5784 14.1307 14.5784 15.344C14.5784 16.3893 14.3078 17.36 13.7664 18.256C13.2251 19.152 12.4318 19.8707 11.3864 20.412C10.3411 20.9347 9.09976 21.196 7.66242 21.196ZM32.3969 12.908C32.3969 13.468 32.3596 13.972 32.2849 14.42H20.9449C21.0383 15.54 21.4303 16.4173 22.1209 17.052C22.8116 17.6867 23.6609 18.004 24.6689 18.004C26.1249 18.004 27.1609 17.3787 27.7769 16.128H32.0049C31.5569 17.6213 30.6983 18.8533 29.4289 19.824C28.1596 20.776 26.6009 21.252 24.7529 21.252C23.2596 21.252 21.9156 20.9253 20.7209 20.272C19.5449 19.6 18.6209 18.6573 17.9489 17.444C17.2956 16.2307 16.9689 14.8307 16.9689 13.244C16.9689 11.6387 17.2956 10.2293 17.9489 9.016C18.6023 7.80267 19.5169 6.86933 20.6929 6.216C21.8689 5.56267 23.2223 5.236 24.7529 5.236C26.2276 5.236 27.5436 5.55333 28.7009 6.188C29.8769 6.82267 30.7823 7.728 31.4169 8.904C32.0703 10.0613 32.3969 11.396 32.3969 12.908ZM28.3369 11.788C28.3183 10.78 27.9543 9.97733 27.2449 9.38C26.5356 8.764 25.6676 8.456 24.6409 8.456C23.6703 8.456 22.8489 8.75467 22.1769 9.352C21.5236 9.93067 21.1223 10.7427 20.9729 11.788H28.3369ZM43.8542 5.264C45.7022 5.264 47.1955 5.852 48.3342 7.028C49.4728 8.18533 50.0422 9.80933 50.0422 11.9V21H46.1222V12.432C46.1222 11.2 45.8142 10.2573 45.1982 9.604C44.5822 8.932 43.7422 8.596 42.6782 8.596C41.5955 8.596 40.7368 8.932 40.1022 9.604C39.4862 10.2573 39.1782 11.2 39.1782 12.432V21H35.2582V5.488H39.1782V7.42C39.7008 6.748 40.3635 6.22533 41.1662 5.852C41.9875 5.46 42.8835 5.264 43.8542 5.264ZM52.7619 13.188C52.7619 11.62 53.0699 10.2293 53.6859 9.016C54.3206 7.80267 55.1792 6.86933 56.2619 6.216C57.3446 5.56267 58.5486 5.236 59.8739 5.236C60.8819 5.236 61.8432 5.46 62.7579 5.908C63.6726 6.33733 64.4006 6.916 64.9419 7.644V0.28H68.9179V21H64.9419V18.704C64.4566 19.4693 63.7752 20.0853 62.8979 20.552C62.0206 21.0187 61.0032 21.252 59.8459 21.252C58.5392 21.252 57.3446 20.916 56.2619 20.244C55.1792 19.572 54.3206 18.6293 53.6859 17.416C53.0699 16.184 52.7619 14.7747 52.7619 13.188ZM64.9699 13.244C64.9699 12.292 64.7832 11.48 64.4099 10.808C64.0366 10.1173 63.5326 9.59467 62.8979 9.24C62.2632 8.86667 61.5819 8.68 60.8539 8.68C60.1259 8.68 59.4539 8.85733 58.8379 9.212C58.2219 9.56667 57.7179 10.0893 57.3259 10.78C56.9526 11.452 56.7659 12.2547 56.7659 13.188C56.7659 14.1213 56.9526 14.9427 57.3259 15.652C57.7179 16.3427 58.2219 16.8747 58.8379 17.248C59.4726 17.6213 60.1446 17.808 60.8539 17.808C61.5819 17.808 62.2632 17.6307 62.8979 17.276C63.5326 16.9027 64.0366 16.38 64.4099 15.708C64.7832 15.0173 64.9699 14.196 64.9699 13.244ZM86.9985 7.504C86.9985 8.54933 86.7465 9.52933 86.2425 10.444C85.7571 11.3587 84.9825 12.096 83.9185 12.656C82.8731 13.216 81.5478 13.496 79.9425 13.496H76.6665V21H72.7465V1.456H79.9425C81.4545 1.456 82.7425 1.71733 83.8065 2.24C84.8705 2.76267 85.6638 3.48133 86.1865 4.396C86.7278 5.31067 86.9985 6.34667 86.9985 7.504ZM79.7745 10.332C80.8571 10.332 81.6598 10.0893 82.1825 9.604C82.7051 9.1 82.9665 8.4 82.9665 7.504C82.9665 5.6 81.9025 4.648 79.7745 4.648H76.6665V10.332H79.7745ZM88.7736 13.188C88.7736 11.62 89.0816 10.2293 89.6976 9.016C90.3323 7.80267 91.1816 6.86933 92.2456 6.216C93.3283 5.56267 94.5323 5.236 95.8576 5.236C97.0149 5.236 98.0229 5.46933 98.8816 5.936C99.7589 6.40267 100.459 6.99067 100.982 7.7V5.488H104.93V21H100.982V18.732C100.478 19.46 99.7776 20.0667 98.8816 20.552C98.0043 21.0187 96.9869 21.252 95.8296 21.252C94.5229 21.252 93.3283 20.916 92.2456 20.244C91.1816 19.572 90.3323 18.6293 89.6976 17.416C89.0816 16.184 88.7736 14.7747 88.7736 13.188ZM100.982 13.244C100.982 12.292 100.795 11.48 100.422 10.808C100.048 10.1173 99.5443 9.59467 98.9096 9.24C98.2749 8.86667 97.5936 8.68 96.8656 8.68C96.1376 8.68 95.4656 8.85733 94.8496 9.212C94.2336 9.56667 93.7296 10.0893 93.3376 10.78C92.9643 11.452 92.7776 12.2547 92.7776 13.188C92.7776 14.1213 92.9643 14.9427 93.3376 15.652C93.7296 16.3427 94.2336 16.8747 94.8496 17.248C95.4843 17.6213 96.1563 17.808 96.8656 17.808C97.5936 17.808 98.2749 17.6307 98.9096 17.276C99.5443 16.9027 100.048 16.38 100.422 15.708C100.795 15.0173 100.982 14.196 100.982 13.244ZM112.678 7.896C113.182 7.07467 113.836 6.43067 114.638 5.964C115.46 5.49733 116.393 5.264 117.438 5.264V9.38H116.402C115.17 9.38 114.237 9.66933 113.602 10.248C112.986 10.8267 112.678 11.8347 112.678 13.272V21H108.758V5.488H112.678V7.896ZM119.07 13.244C119.07 11.6387 119.397 10.2387 120.05 9.044C120.704 7.83067 121.609 6.89733 122.766 6.244C123.924 5.572 125.249 5.236 126.742 5.236C128.665 5.236 130.252 5.72133 131.502 6.692C132.772 7.644 133.621 8.988 134.05 10.724H129.822C129.598 10.052 129.216 9.52933 128.674 9.156C128.152 8.764 127.498 8.568 126.714 8.568C125.594 8.568 124.708 8.97867 124.054 9.8C123.401 10.6027 123.074 11.7507 123.074 13.244C123.074 14.7187 123.401 15.8667 124.054 16.688C124.708 17.4907 125.594 17.892 126.714 17.892C128.301 17.892 129.337 17.1827 129.822 15.764H134.05C133.621 17.444 132.772 18.7787 131.502 19.768C130.233 20.7573 128.646 21.252 126.742 21.252C125.249 21.252 123.924 20.9253 122.766 20.272C121.609 19.6 120.704 18.6667 120.05 17.472C119.397 16.2587 119.07 14.8493 119.07 13.244ZM151.342 12.908C151.342 13.468 151.305 13.972 151.23 14.42H139.89C139.984 15.54 140.376 16.4173 141.066 17.052C141.757 17.6867 142.606 18.004 143.614 18.004C145.07 18.004 146.106 17.3787 146.722 16.128H150.95C150.502 17.6213 149.644 18.8533 148.374 19.824C147.105 20.776 145.546 21.252 143.698 21.252C142.205 21.252 140.861 20.9253 139.666 20.272C138.49 19.6 137.566 18.6573 136.894 17.444C136.241 16.2307 135.914 14.8307 135.914 13.244C135.914 11.6387 136.241 10.2293 136.894 9.016C137.548 7.80267 138.462 6.86933 139.638 6.216C140.814 5.56267 142.168 5.236 143.698 5.236C145.173 5.236 146.489 5.55333 147.646 6.188C148.822 6.82267 149.728 7.728 150.362 8.904C151.016 10.0613 151.342 11.396 151.342 12.908ZM147.282 11.788C147.264 10.78 146.9 9.97733 146.19 9.38C145.481 8.764 144.613 8.456 143.586 8.456C142.616 8.456 141.794 8.75467 141.122 9.352C140.469 9.93067 140.068 10.7427 139.918 11.788H147.282ZM158.123 0.28V21H154.203V0.28H158.123Z" fill="#034D91"/>
<path d="M15.6984 40.672C15.6984 41.8107 15.4371 42.856 14.9144 43.808C14.3918 44.7413 13.5891 45.4973 12.5064 46.076C11.4238 46.6547 10.0798 46.944 8.47442 46.944H5.50642V54H0.718422V34.344H8.47442C10.0424 34.344 11.3678 34.6147 12.4504 35.156C13.5331 35.6973 14.3451 36.444 14.8864 37.396C15.4278 38.348 15.6984 39.44 15.6984 40.672ZM8.11042 43.136C9.02509 43.136 9.70642 42.9213 10.1544 42.492C10.6024 42.0627 10.8264 41.456 10.8264 40.672C10.8264 39.888 10.6024 39.2813 10.1544 38.852C9.70642 38.4227 9.02509 38.208 8.11042 38.208H5.50642V43.136H8.11042ZM28.2151 54L24.1271 46.58H22.9791V54H18.1911V34.344H26.2271C27.7764 34.344 29.0924 34.6147 30.1751 35.156C31.2764 35.6973 32.0977 36.444 32.6391 37.396C33.1804 38.3293 33.4511 39.3747 33.4511 40.532C33.4511 41.8387 33.0777 43.0053 32.3311 44.032C31.6031 45.0587 30.5204 45.7867 29.0831 46.216L33.6191 54H28.2151ZM22.9791 43.192H25.9471C26.8244 43.192 27.4777 42.9773 27.9071 42.548C28.3551 42.1187 28.5791 41.512 28.5791 40.728C28.5791 39.9813 28.3551 39.3933 27.9071 38.964C27.4777 38.5347 26.8244 38.32 25.9471 38.32H22.9791V43.192ZM45.7527 54.196C43.9047 54.196 42.206 53.7667 40.6567 52.908C39.126 52.0493 37.9034 50.8547 36.9887 49.324C36.0927 47.7747 35.6447 46.0387 35.6447 44.116C35.6447 42.1933 36.0927 40.4667 36.9887 38.936C37.9034 37.4053 39.126 36.2107 40.6567 35.352C42.206 34.4933 43.9047 34.064 45.7527 34.064C47.6007 34.064 49.29 34.4933 50.8207 35.352C52.37 36.2107 53.5834 37.4053 54.4607 38.936C55.3567 40.4667 55.8047 42.1933 55.8047 44.116C55.8047 46.0387 55.3567 47.7747 54.4607 49.324C53.5647 50.8547 52.3514 52.0493 50.8207 52.908C49.29 53.7667 47.6007 54.196 45.7527 54.196ZM45.7527 49.828C47.3207 49.828 48.5714 49.3053 49.5047 48.26C50.4567 47.2147 50.9327 45.8333 50.9327 44.116C50.9327 42.38 50.4567 40.9987 49.5047 39.972C48.5714 38.9267 47.3207 38.404 45.7527 38.404C44.166 38.404 42.8967 38.9173 41.9447 39.944C41.0114 40.9707 40.5447 42.3613 40.5447 44.116C40.5447 45.852 41.0114 47.2427 41.9447 48.288C42.8967 49.3147 44.166 49.828 45.7527 49.828Z" fill="#EA0000"/>
</svg>
