<svg width="17" height="17" viewBox="0 0 17 17" fill="none" xmlns="http://www.w3.org/2000/svg">
<path d="M6.67358 9.50927L11.2269 12.1626M11.2203 4.84261L6.67358 7.49594M14.947 3.83594C14.947 4.94051 14.0516 5.83594 12.947 5.83594C11.8425 5.83594 10.947 4.94051 10.947 3.83594C10.947 2.73137 11.8425 1.83594 12.947 1.83594C14.0516 1.83594 14.947 2.73137 14.947 3.83594ZM6.94702 8.5026C6.94702 9.60717 6.05159 10.5026 4.94702 10.5026C3.84245 10.5026 2.94702 9.60717 2.94702 8.5026C2.94702 7.39803 3.84245 6.5026 4.94702 6.5026C6.05159 6.5026 6.94702 7.39803 6.94702 8.5026ZM14.947 13.1693C14.947 14.2738 14.0516 15.1693 12.947 15.1693C11.8425 15.1693 10.947 14.2738 10.947 13.1693C10.947 12.0647 11.8425 11.1693 12.947 11.1693C14.0516 11.1693 14.947 12.0647 14.947 13.1693Z" stroke="#00498D" stroke-width="1.5" stroke-linecap="round" stroke-linejoin="round"/>
</svg>
