<svg width="23" height="19" viewBox="0 0 23 19" fill="none" xmlns="http://www.w3.org/2000/svg">
          <path fill-rule="evenodd" clip-rule="evenodd" d="M4.13173 6.0479C4.13173 3.83604 5.97313 2.04297 8.24463 2.04297C10.5161 2.04297 12.3575 3.83604 12.3575 6.0479C12.3575 8.25977 10.5161 10.0528 8.24463 10.0528C5.97313 10.0528 4.13173 8.25977 4.13173 6.0479ZM8.24463 3.45647C6.77484 3.45647 5.58334 4.6167 5.58334 6.0479C5.58334 7.47911 6.77484 8.63933 8.24463 8.63933C9.71442 8.63933 10.9059 7.47911 10.9059 6.0479C10.9059 4.6167 9.71442 3.45647 8.24463 3.45647Z" fill="#000000" fill-opacity="0.54"/>
          <path fill-rule="evenodd" clip-rule="evenodd" d="M4.37366 12.8798C3.17111 12.8798 2.19624 13.8291 2.19624 15.0001V16.1199C2.19624 16.1369 2.20893 16.1515 2.22621 16.1542C6.2121 16.7879 10.2772 16.7879 14.263 16.1542C14.2803 16.1515 14.293 16.1369 14.293 16.1199V15.0001C14.293 13.8291 13.3182 12.8798 12.1156 12.8798H11.7857C11.7602 12.8798 11.7349 12.8838 11.7106 12.8915L10.873 13.1578C9.16513 13.7008 7.32412 13.7008 5.61623 13.1578L4.77863 12.8915C4.75439 12.8838 4.72904 12.8798 4.70353 12.8798H4.37366ZM0.744629 15.0001C0.744629 13.0485 2.3694 11.4663 4.37366 11.4663H4.70353C4.88207 11.4663 5.05949 11.4938 5.22921 11.5478L6.06681 11.8141C7.48192 12.2641 9.00733 12.2641 10.4224 11.8141L11.26 11.5478C11.4298 11.4938 11.6072 11.4663 11.7857 11.4663H12.1156C14.1199 11.4663 15.7446 13.0485 15.7446 15.0001V16.1199C15.7446 16.8297 15.2164 17.4349 14.4969 17.5492C10.3561 18.2075 6.13311 18.2075 1.99231 17.5492C1.2729 17.4349 0.744629 16.8297 0.744629 16.1199V15.0001Z" fill="#000000" fill-opacity="0.54"/>
          <path d="M18.4195 4.87305C19.3101 5.76367 19.3101 7.20451 18.4195 8.09117C17.5289 8.97784 16.0881 8.9818 15.2014 8.09117C14.3147 7.20055 14.3108 5.75971 15.2014 4.87305" stroke="#000000" stroke-opacity="0.54" stroke-width="1.2" stroke-linecap="round" stroke-linejoin="round"/>
          <path d="M17.2704 5.84977C16.3441 4.92352 16.3441 3.41935 17.2704 2.48914C18.1966 1.55893 19.7008 1.56289 20.631 2.48914C21.5612 3.41539 21.5572 4.91956 20.631 5.84977" stroke="#000000" stroke-opacity="0.54" stroke-width="1.2" stroke-linecap="round" stroke-linejoin="round"/>
          </svg>